<svg version="1.1" xmlns="http://www.w3.org/2000/svg" style="display: block;" viewBox="0 0 1676 1836" width="419" height="459" preserveAspectRatio="none">
<defs>
	<linearGradient id="Gradient1" gradientUnits="userSpaceOnUse" x1="508.173" y1="1370.17" x2="974.099" y2="1361.37">
		<stop class="stop0" offset="0" stop-opacity="1" stop-color="rgb(22,67,136)"/>
		<stop class="stop1" offset="1" stop-opacity="1" stop-color="rgb(40,175,226)"/>
	</linearGradient>
	<linearGradient id="Gradient2" gradientUnits="userSpaceOnUse" x1="1246.8" y1="441.042" x2="748.395" y2="397.328">
		<stop class="stop0" offset="0" stop-opacity="1" stop-color="rgb(25,57,111)"/>
		<stop class="stop1" offset="1" stop-opacity="1" stop-color="rgb(26,105,171)"/>
	</linearGradient>
	<linearGradient id="Gradient3" gradientUnits="userSpaceOnUse" x1="864.373" y1="338.219" x2="284.631" y2="326.645">
		<stop class="stop0" offset="0" stop-opacity="1" stop-color="rgb(25,99,162)"/>
		<stop class="stop1" offset="1" stop-opacity="1" stop-color="rgb(36,165,217)"/>
	</linearGradient>
	<linearGradient id="Gradient4" gradientUnits="userSpaceOnUse" x1="703.945" y1="1276.33" x2="356.081" y2="688.022">
		<stop class="stop0" offset="0" stop-opacity="1" stop-color="rgb(62,118,55)"/>
		<stop class="stop1" offset="1" stop-opacity="1" stop-color="rgb(139,195,81)"/>
	</linearGradient>
	<linearGradient id="Gradient5" gradientUnits="userSpaceOnUse" x1="1179.26" y1="1092.26" x2="1416.1" y2="750.054">
		<stop class="stop0" offset="0" stop-opacity="1" stop-color="rgb(22,58,121)"/>
		<stop class="stop1" offset="1" stop-opacity="1" stop-color="rgb(33,134,194)"/>
	</linearGradient>
	<linearGradient id="Gradient6" gradientUnits="userSpaceOnUse" x1="933.197" y1="1366.3" x2="1641.38" y2="638.742">
		<stop class="stop0" offset="0" stop-opacity="1" stop-color="rgb(96,151,66)"/>
		<stop class="stop1" offset="1" stop-opacity="1" stop-color="rgb(125,182,82)"/>
	</linearGradient>
</defs>
<path transform="translate(0,0)" fill="rgb(255,255,255)" d="M 0 0 L 1676 0 L 1676 1836 L 0 1836 L 0 0 z"/>
<path transform="translate(0,0)" fill="url(#Gradient6)" d="M 940.203 207.927 C 957.599 205.214 993.208 206.41 1010.68 206.861 C 1109.67 209.416 1209.72 237.189 1289.54 297.375 C 1309.6 312.506 1325.44 328.057 1343.39 346.139 C 1362.66 366.03 1391.15 397.918 1405.85 421.875 C 1452.93 498.57 1479.94 596.928 1479.01 686.811 C 1478.89 697.961 1475.72 750.169 1472.34 757.915 C 1469.4 785.21 1461.86 809.191 1453.72 834.823 C 1425.01 925.17 1374.63 992.287 1301.16 1050.91 C 1263.41 1081.04 1238.07 1089.96 1199.35 1113 C 1200.82 1119.37 1212.48 1135.78 1216.43 1141.62 C 1228.14 1159.04 1239.95 1176.39 1251.85 1193.69 C 1256.12 1199.81 1269.18 1217.43 1272.29 1223.16 C 1293.23 1250.24 1315.21 1284.38 1335.27 1312.91 L 1490.13 1535.52 L 1593.93 1686.07 C 1606.65 1704.26 1619.26 1722.53 1631.76 1740.88 C 1639.67 1752.32 1649.13 1764.45 1655.5 1776.63 C 1632.01 1775.68 1606.23 1776.51 1582.49 1776.7 L 1463.17 1776.87 C 1441.43 1776.88 1415.9 1777.54 1394.42 1776.75 C 1381.63 1777.08 1362.27 1777.02 1349.79 1776.03 C 1338.06 1755.41 1314.95 1729.63 1304.56 1709.81 C 1300.25 1704.93 1291.92 1691.98 1288.11 1686.34 L 1257.12 1640.37 C 1230.74 1601.08 1203.52 1562.41 1176.47 1523.54 L 1009.76 1281.9 C 982.308 1242.33 955.073 1203.87 929.688 1162.82 C 921.694 1149.89 910.784 1137.37 903.273 1124.18 C 908.282 1111.67 916.192 1095.76 922.015 1083.43 C 934.881 1056.15 947.95 1028.97 961.221 1001.89 C 975.948 971.292 995.801 925.173 1012.67 897.533 C 1025.03 895.701 1038.14 895.298 1051 893.21 C 1103.41 884.697 1138.42 864.498 1173.16 825.009 C 1218.9 773.02 1231.7 721.961 1227.35 654.033 L 1229.13 653.567 C 1235.19 640.276 1229.4 565.694 1227.01 549.217 C 1207.92 417.285 1142.99 321.971 1029.55 254.059 C 1014.13 244.974 998.297 236.62 982.095 229.026 C 971.497 224.035 948.625 214.763 940.203 207.927 z"/>
<path transform="translate(0,0)" fill="url(#Gradient5)" d="M 1341.75 682.693 C 1342.13 686.167 1342.07 685.953 1340.9 689.268 C 1338.68 695.557 1339.86 704.539 1340.73 711.104 C 1341.02 712.763 1348.41 720.437 1349.59 722.274 C 1366.54 748.521 1389.79 762.528 1417.05 776.271 C 1424.08 779.812 1432.05 784.492 1439.55 787.274 C 1443.45 788.719 1452.54 790.208 1455.29 792.59 C 1456.01 794.926 1456.67 797.197 1457.57 799.474 C 1459.76 797.974 1461.63 796.66 1463.95 795.341 C 1464.82 783.557 1469.13 770.321 1470.68 757.718 L 1472.34 757.915 C 1469.4 785.21 1461.86 809.191 1453.72 834.823 C 1425.01 925.17 1374.63 992.287 1301.16 1050.91 C 1263.41 1081.04 1238.07 1089.96 1199.35 1113 C 1179.37 1072.88 1169.44 1045.79 1170.15 999.377 C 1170.42 981.48 1173.14 962.937 1171.48 945.146 C 1177.21 935.785 1183.38 923.276 1189.12 913.348 C 1199.96 894.841 1211.57 876.793 1223.91 859.252 C 1241.88 833.566 1263.08 807.971 1281.69 782.396 C 1306.67 748.084 1323.26 720.29 1341.75 682.693 z"/>
<path transform="translate(0,0)" fill="rgb(39,149,203)" d="M 1343.39 346.139 C 1362.66 366.03 1391.15 397.918 1405.85 421.875 C 1452.93 498.57 1479.94 596.928 1479.01 686.811 C 1478.89 697.961 1475.72 750.169 1472.34 757.915 L 1470.68 757.718 C 1469.13 770.321 1464.82 783.557 1463.95 795.341 C 1461.63 796.66 1459.76 797.974 1457.57 799.474 C 1456.67 797.197 1456.01 794.926 1455.29 792.59 C 1452.54 790.208 1443.45 788.719 1439.55 787.274 C 1432.05 784.492 1424.08 779.812 1417.05 776.271 C 1389.79 762.528 1366.54 748.521 1349.59 722.274 C 1348.41 720.437 1341.02 712.763 1340.73 711.104 C 1339.86 704.539 1338.68 695.557 1340.9 689.268 C 1342.07 685.953 1342.13 686.167 1341.75 682.693 C 1372.75 603.89 1392.26 518.718 1369.72 434.553 C 1362.98 409.397 1348.06 380.382 1338.46 355.309 C 1339.89 352.275 1341.75 349.091 1343.39 346.139 z"/>
<path transform="translate(0,0)" fill="rgb(62,120,57)" d="M 1272.29 1223.16 L 1271.23 1223.95 C 1269.22 1222.33 1245.93 1189.35 1244.25 1186.46 C 1229.16 1160.44 1206.13 1134.73 1193.62 1107.64 C 1187.15 1093.83 1181.48 1079.66 1176.62 1065.2 C 1171.19 1048.62 1171.09 1034.64 1168.55 1017.78 C 1168.23 1019.82 1168.45 1019.15 1167.34 1021.04 C 1165.45 1018.82 1165.76 1013.61 1165.71 1010.43 L 1164.28 1009.61 C 1158.34 1013.06 1150.82 1047.76 1147.61 1055.59 C 1147.28 1058.55 1142.11 1067.26 1142.22 1069.62 C 1143.54 1094.69 1128.6 1118.43 1123.35 1143.21 C 1120.76 1155.4 1133.64 1203.74 1132.4 1208.01 C 1131.34 1202.4 1128.83 1194.18 1127.41 1187.42 C 1114.16 1124.61 1121.97 1055.79 1145.85 996.43 C 1152.05 981.019 1161.99 959.067 1171.48 945.146 C 1173.14 962.937 1170.42 981.48 1170.15 999.377 C 1169.44 1045.79 1179.37 1072.88 1199.35 1113 C 1200.82 1119.37 1212.48 1135.78 1216.43 1141.62 C 1228.14 1159.04 1239.95 1176.39 1251.85 1193.69 C 1256.12 1199.81 1269.18 1217.43 1272.29 1223.16 z"/>
<path transform="translate(0,0)" fill="rgb(62,120,57)" d="M 1304.56 1709.81 L 1305.27 1708.62 C 1310.58 1714.29 1312.83 1719.54 1317.08 1725.37 C 1328.24 1740.7 1339.4 1758.58 1351.59 1772.72 C 1353.74 1775.2 1395.22 1772.84 1400.52 1772.59 C 1402.19 1770.52 1404.26 1767.96 1406.72 1764.91 C 1413.73 1762.55 1425.47 1759.44 1432.58 1758.59 L 1436.61 1754.83 C 1442.06 1757.34 1454.53 1760.35 1460.59 1758.47 C 1462.46 1757.89 1462.61 1758.1 1464.55 1758.49 C 1464.94 1754.69 1464.28 1754.73 1466.34 1752.58 C 1469.85 1754.1 1473.02 1760.28 1474.65 1763.67 L 1474.15 1764.85 L 1470.68 1765.31 C 1469.48 1767.1 1469.64 1766.46 1469.17 1768.45 C 1474.19 1772.2 1481.79 1776.52 1488.09 1773.98 C 1489.08 1772.22 1487.35 1767.03 1486.2 1765.63 C 1460.59 1734.6 1442.26 1698.72 1418.24 1666.55 C 1415.5 1662.88 1411.97 1658.32 1410.25 1654.13 C 1413.54 1657.38 1418.23 1664.17 1421.05 1668.12 C 1443.66 1699.7 1462.43 1733.64 1486.59 1764.18 C 1488.35 1766.41 1489.89 1770.04 1490.62 1772.73 L 1490.2 1774.75 C 1478.29 1777.56 1430.57 1774.76 1415.68 1775.76 C 1409.8 1776.16 1400.56 1774.95 1394.42 1776.75 C 1381.63 1777.08 1362.27 1777.02 1349.79 1776.03 C 1338.06 1755.41 1314.95 1729.63 1304.56 1709.81 z"/>
<path transform="translate(0,0)" fill="url(#Gradient4)" d="M 703.611 609.418 C 704.892 609.481 708.014 609.532 708.488 610.356 C 715.019 621.688 725.497 665.917 728.591 677.008 L 805.096 941.909 C 813.328 969.742 822.902 996.91 830.778 1024.96 C 810.879 1017.7 800.426 1007.62 782.836 998.034 C 754.481 982.577 724.831 965.911 695.405 952.775 C 690.867 961.302 686.55 969.888 682.158 978.49 C 646.806 1047.73 604.835 1113.88 564.951 1180.6 C 554.089 1198.76 544.144 1217.76 533.34 1236.02 L 474.791 1334.98 C 462.979 1354.83 449.36 1376.02 439.326 1396.64 C 430.518 1414.74 423.458 1436.18 416.666 1455.28 C 403.697 1440.3 388.763 1409.05 379.392 1390.6 C 370.085 1373.45 359.686 1357.85 349.258 1341.41 C 337.112 1322.04 324.81 1302.77 312.354 1283.59 C 225.578 1151.78 228.228 1130.74 308.004 995.653 C 346.803 929.954 392.86 855.102 428.976 788.435 C 400.546 775.685 369.322 758.445 341.84 743.606 C 328.109 736.192 310.103 727.293 297.36 718.898 C 311.819 714.112 334.569 710.12 351.344 705.226 C 433.463 681.211 515.995 658.633 598.903 637.504 C 616.514 632.941 634.028 628.012 651.434 622.721 C 665.629 618.469 689.901 610.399 703.611 609.418 z"/>
<path transform="translate(0,0)" fill="url(#Gradient3)" d="M 282.391 205.677 L 671.747 206.112 L 806.939 206.301 C 830.611 206.342 858.727 205.73 882.098 206.777 C 901.651 205.908 920.816 207.604 940.203 207.927 C 948.625 214.763 971.497 224.035 982.095 229.026 C 998.297 236.62 1014.13 244.974 1029.55 254.059 C 1142.99 321.971 1207.92 417.285 1227.01 549.217 C 1229.4 565.694 1235.19 640.276 1229.13 653.567 L 1227.35 654.033 C 1224.81 608.802 1200.19 561.226 1169.58 528.273 C 1158.73 516.584 1145.61 507.861 1132.6 498.928 C 1069.17 455.35 1006.7 462.544 933.814 461.992 C 884.848 461.62 834.721 462.601 785.623 461.766 C 746.304 462.956 701.503 461.949 661.807 461.985 C 604.981 462.332 548.154 462.339 491.328 462.005 C 471.973 443.4 451.245 413.777 433.977 392.328 C 401.888 352.471 369.791 312.213 337.56 272.443 C 323.142 254.652 298.747 219.547 282.391 205.677 z"/>
<path transform="translate(0,0)" fill="url(#Gradient2)" d="M 882.098 206.777 C 901.651 205.908 920.816 207.604 940.203 207.927 C 948.625 214.763 971.497 224.035 982.095 229.026 C 998.297 236.62 1014.13 244.974 1029.55 254.059 C 1142.99 321.971 1207.92 417.285 1227.01 549.217 C 1229.4 565.694 1235.19 640.276 1229.13 653.567 L 1227.35 654.033 C 1224.81 608.802 1200.19 561.226 1169.58 528.273 C 1158.73 516.584 1145.61 507.861 1132.6 498.928 C 1069.17 455.35 1006.7 462.544 933.814 461.992 C 884.848 461.62 834.721 462.601 785.623 461.766 C 780.893 460.413 779.997 460.421 775.291 460.536 L 774.074 460.577 C 778.719 459.033 787.171 457.882 789.347 455.273 C 787.159 453.555 787.331 453.601 786.028 451.102 C 787.153 448.685 787.412 448.601 787.214 445.88 C 783.004 440.719 781.986 439.629 780.753 433.037 C 776.89 429.831 762.568 418.255 757.091 417.416 C 745.143 415.585 654.343 418.908 650.378 416.273 C 653.467 415.187 692.957 415.981 698.5 415.96 L 910.705 415.526 C 896.134 414.265 868.02 416.338 858.186 414.674 L 857.816 413.819 C 859.893 411.454 861.016 409.952 863.791 408.466 C 864.622 403.63 858.274 401.214 862.095 391.942 C 863.608 388.271 858.652 374.058 858.175 367.932 C 857.181 355.172 858.075 342.728 857.273 330.068 C 856.658 320.368 851.904 308.907 850.198 299.122 C 846.877 278.294 846.523 253.57 835.71 234.708 C 830.496 225.611 812.703 225.254 806.582 218.909 C 806.076 217.009 805.664 214.724 804.608 213.054 C 802.37 209.516 767.972 209.438 761.191 207.886 C 796.62 204.954 846.152 210.085 880.972 206.886 L 882.098 206.777 z"/>
<path transform="translate(0,0)" fill="url(#Gradient1)" d="M 591.371 1207.37 C 608.279 1206.57 627.279 1207.2 644.434 1207.26 L 726.702 1207.19 C 739.917 1207.15 765.508 1207.76 778.248 1206.26 C 782.284 1215.69 795.907 1235.61 801.896 1245.36 C 834.481 1298.47 870.722 1349.79 905.147 1401.52 L 964.168 1491.45 C 969.574 1499.53 980.345 1517.02 985.81 1523.85 C 970.471 1522.55 951.172 1523.03 935.493 1523.16 L 864.41 1523.69 L 646.785 1524.01 L 584.687 1524.2 C 579.174 1524.22 557.514 1524.43 553.219 1523.42 C 532.176 1522.35 514.273 1517.48 496.138 1506.66 C 427.041 1465.43 478.895 1399.39 508.673 1352.17 C 524.982 1319.51 543.148 1291.15 562.01 1260 C 571.968 1243.56 580.106 1223.1 591.371 1207.37 z"/>
<path transform="translate(0,0)" fill="rgb(23,62,124)" d="M 508.673 1352.17 C 510.777 1357.82 508.567 1356.17 508.248 1359.98 C 508.099 1361.76 515.561 1372.15 515.644 1373.81 C 516.314 1387.11 516.814 1399.44 517.497 1412.98 C 519.028 1443.34 507.551 1491.16 529.12 1515.26 C 532.829 1518.42 549.499 1521.42 555.063 1522.1 C 554.325 1523.28 554.864 1522.75 553.219 1523.42 C 532.176 1522.35 514.273 1517.48 496.138 1506.66 C 427.041 1465.43 478.895 1399.39 508.673 1352.17 z"/>
</svg>