<svg version="1.1" xmlns="http://www.w3.org/2000/svg" style="display: block;" viewBox="0 0 2048 1117" width="1408" height="768" preserveAspectRatio="none">
<defs>
	<linearGradient id="Gradient1" gradientUnits="userSpaceOnUse" x1="574.268" y1="625.372" x2="649.096" y2="626.745">
		<stop class="stop0" offset="0" stop-opacity="1" stop-color="rgb(20,58,126)"/>
		<stop class="stop1" offset="1" stop-opacity="1" stop-color="rgb(36,156,214)"/>
	</linearGradient>
	<linearGradient id="Gradient2" gradientUnits="userSpaceOnUse" x1="627.201" y1="437.102" x2="544.412" y2="438.746">
		<stop class="stop0" offset="0" stop-opacity="1" stop-color="rgb(27,111,174)"/>
		<stop class="stop1" offset="1" stop-opacity="1" stop-color="rgb(35,162,216)"/>
	</linearGradient>
	<linearGradient id="Gradient3" gradientUnits="userSpaceOnUse" x1="711.742" y1="452.125" x2="621.481" y2="447.193">
		<stop class="stop0" offset="0" stop-opacity="1" stop-color="rgb(23,57,116)"/>
		<stop class="stop1" offset="1" stop-opacity="1" stop-color="rgb(27,111,174)"/>
	</linearGradient>
	<linearGradient id="Gradient4" gradientUnits="userSpaceOnUse" x1="706.867" y1="525.231" x2="762.543" y2="479.943">
		<stop class="stop0" offset="0" stop-opacity="1" stop-color="rgb(24,101,161)"/>
		<stop class="stop1" offset="1" stop-opacity="1" stop-color="rgb(44,168,222)"/>
	</linearGradient>
	<linearGradient id="Gradient5" gradientUnits="userSpaceOnUse" x1="660.325" y1="629.092" x2="786.31" y2="492.714">
		<stop class="stop0" offset="0" stop-opacity="1" stop-color="rgb(96,152,67)"/>
		<stop class="stop1" offset="1" stop-opacity="1" stop-color="rgb(126,182,79)"/>
	</linearGradient>
</defs>
<path transform="translate(0,0)" fill="rgb(255,255,255)" d="M 0 0 L 2048 0 L 2048 1117 L 0 1117 L 0 0 z"/>
<path transform="translate(0,0)" fill="url(#Gradient5)" d="M 658.899 415.786 C 684.697 415.625 709.271 417.908 728.922 437.152 C 730.153 438.364 731.356 439.606 732.529 440.875 C 762.586 470.74 767.466 526.752 737.201 557.706 C 729.859 567.676 717.473 574.995 706.651 580.558 C 710.002 585.62 717.752 596.528 720.433 601.375 C 741.302 627.748 769.908 672.072 789.793 700.988 L 760.305 701.128 C 751.692 701.228 742.858 701.108 734.224 701.093 C 730.48 695.917 726.917 690.613 723.542 685.19 C 721.824 683.576 707.347 662.32 705.264 659.313 C 687.663 633.853 670.211 608.291 652.91 582.626 C 659.282 568.744 665.896 554.974 672.747 541.322 C 700.849 538.853 713.561 521.267 711.629 493.856 C 714.906 487.651 710.027 467.81 707.532 460.862 C 699.016 437.148 680.488 425.768 658.899 415.786 z"/>
<path transform="translate(0,0)" fill="url(#Gradient4)" d="M 732.529 440.875 C 762.586 470.74 767.466 526.752 737.201 557.706 C 729.859 567.676 717.473 574.995 706.651 580.558 C 700.736 569.318 701.237 561.776 701.999 549.722 C 703.576 546.364 704.02 545.597 706.236 542.63 C 711.119 533.079 719.599 523.613 725.531 514.606 C 737.453 496.504 743.638 473.394 735.778 452.433 C 734.474 448.958 733.425 445.495 732.709 441.826 L 732.529 440.875 z"/>
<path transform="translate(0,0)" fill="rgb(14,58,118)" d="M 706.236 542.63 C 710.022 540.447 711.127 538.184 713.529 534.529 C 716.662 537.728 717.846 538.882 721.397 541.58 C 726.774 545.666 736.703 547.091 738.734 553.34 L 737.201 557.706 C 729.859 567.676 717.473 574.995 706.651 580.558 C 700.736 569.318 701.237 561.776 701.999 549.722 C 703.576 546.364 704.02 545.597 706.236 542.63 z"/>
<path transform="translate(0,0)" fill="rgb(83,139,61)" d="M 701.999 549.722 C 701.237 561.776 700.736 569.318 706.651 580.558 C 710.002 585.62 717.752 596.528 720.433 601.375 L 719.684 601.956 C 712.375 598.235 705.665 576.973 700.648 575.157 C 696.159 577.504 693.601 586.295 694.101 591.138 C 694.519 595.192 698.967 600.757 698.099 604.501 L 695.767 603.315 C 688.552 592.195 694.72 561.205 701.999 549.722 z"/>
<path transform="translate(0,0)" fill="rgb(83,139,61)" d="M 723.542 685.19 L 725.173 684.866 L 724.114 684.768 C 729.298 687.143 733.458 704.671 748.671 698.984 C 750.186 698.418 750.622 698.156 751.766 697.074 C 754.415 687.39 740.6 679.408 737.859 669.738 C 740.962 672.335 757.306 696.641 760.305 701.128 C 751.692 701.228 742.858 701.108 734.224 701.093 C 730.48 695.917 726.917 690.613 723.542 685.19 z"/>
<path transform="translate(0,0)" fill="rgb(14,58,118)" d="M 1445.16 442.397 C 1474.03 438.682 1500.5 458.923 1504.47 487.754 C 1508.45 516.585 1488.45 543.234 1459.65 547.47 C 1430.49 551.76 1403.42 531.445 1399.39 502.244 C 1395.37 473.043 1415.93 446.161 1445.16 442.397 z"/>
<path transform="translate(0,0)" fill="rgb(255,255,255)" d="M 1449.68 464.127 C 1466.62 462.916 1481.35 475.607 1482.67 492.537 C 1483.99 509.467 1471.39 524.286 1454.47 525.712 C 1437.4 527.15 1422.42 514.415 1421.09 497.332 C 1419.76 480.249 1432.59 465.348 1449.68 464.127 z"/>
<path transform="translate(0,0)" fill="rgb(14,58,118)" d="M 1209.08 442.603 C 1238 437.972 1265.19 457.692 1269.78 486.622 C 1274.36 515.552 1254.59 542.71 1225.66 547.244 C 1196.79 551.767 1169.71 532.058 1165.14 503.197 C 1160.56 474.336 1180.23 447.224 1209.08 442.603 z"/>
<path transform="translate(0,0)" fill="rgb(255,255,255)" d="M 1210.04 465.121 C 1226.64 460.99 1243.43 471.147 1247.48 487.767 C 1251.53 504.387 1241.29 521.131 1224.65 525.101 C 1208.13 529.043 1191.52 518.89 1187.5 502.384 C 1183.48 485.877 1193.55 469.223 1210.04 465.121 z"/>
<path transform="translate(0,0)" fill="rgb(120,168,84)" d="M 542.336 508.873 C 563.139 504.521 596.312 494.267 617.749 488.36 C 622.786 508.084 629.054 527.499 634.664 547.066 C 636.169 552.315 638.073 557.542 638.848 562.962 L 637.855 563.865 L 634.9 561.669 L 615.197 551.204 C 602.41 577.005 572.939 619.651 564.292 642.861 C 561.089 637.479 558.006 632.026 555.046 626.507 C 533.838 595.942 525.263 585.087 549 551.649 C 554.269 544.226 562.245 529.648 566.665 521.478 C 558.696 517.66 550.219 513.005 542.336 508.873 z"/>
<path transform="translate(0,0)" fill="rgb(83,139,61)" d="M 555.046 626.507 C 549.105 595.849 566.856 577.622 581.216 552.291 C 584.373 546.721 600.585 520.257 604.133 517.727 C 618.641 528.657 627.378 520.177 630.645 543.333 C 630.877 544.977 635.353 555.109 636.258 560.359 L 634.9 561.669 L 615.197 551.204 C 602.41 577.005 572.939 619.651 564.292 642.861 C 561.089 637.479 558.006 632.026 555.046 626.507 z"/>
<path transform="translate(0,0)" fill="rgb(14,58,118)" d="M 820.201 444.087 C 839.591 444.157 861.815 442.613 880.763 445.821 C 907.104 450.281 914.423 484.98 897.33 503.026 C 893.933 506.613 890.429 508.625 886.206 511.13 C 889.655 516.98 905.706 540.909 906.794 544.421 C 905.36 545.451 898.724 545.13 896.5 545.133 L 881.33 545.276 L 862.456 515.175 L 843.009 515.136 L 842.938 545.029 L 820.05 545.096 L 820.201 444.087 z"/>
<path transform="translate(0,0)" fill="rgb(255,255,255)" d="M 842.966 464.765 C 858.692 464.472 897.245 461.788 880.012 490.619 C 871.096 496.931 854.267 495.192 842.973 495.182 L 842.966 464.765 z"/>
<path transform="translate(0,0)" fill="url(#Gradient3)" d="M 540.243 415.356 C 565.057 416.187 591.879 414.56 616.372 415.894 C 630.546 415.587 644.724 415.551 658.899 415.786 C 680.488 425.768 699.016 437.148 707.532 460.862 C 710.027 467.81 714.906 487.651 711.629 493.856 C 701.352 455.223 666.639 462.537 635.58 461.844 C 617.916 462.632 595.694 462.036 577.677 462.066 L 540.243 415.356 z"/>
<path transform="translate(0,0)" fill="url(#Gradient2)" d="M 540.243 415.356 C 565.057 416.187 591.879 414.56 616.372 415.894 C 621.548 417.221 622.276 416.435 625.187 420.965 C 630.39 429.06 628.646 441.301 626.82 450.361 C 622.827 454.048 622.311 454.594 619.895 459.44 L 613.45 460.224 C 617.955 460.412 632.058 460.7 635.58 461.844 C 617.916 462.632 595.694 462.036 577.677 462.066 L 540.243 415.356 z"/>
<path transform="translate(0,0)" fill="rgb(14,58,118)" d="M 1045.45 444.294 L 1065.58 444.213 C 1080.99 465.072 1098.1 486.539 1113.93 507.348 C 1113.67 486.324 1113.62 465.297 1113.79 444.271 L 1136 444.35 C 1136.03 475.632 1137.16 514.489 1135.79 545.101 L 1116.23 545.03 C 1101.21 524.217 1083.06 501.974 1067.3 481.179 C 1067.73 502.472 1067.86 523.771 1067.69 545.068 L 1045.26 545.021 L 1045.45 444.294 z"/>
<path transform="translate(0,0)" fill="rgb(14,58,118)" d="M 936.327 444.119 L 1015.1 444.062 L 1015.01 464.322 C 996.562 463.994 977.398 464.283 958.896 464.314 L 958.949 485.075 L 1009.03 484.97 L 1009.07 504.308 C 994.497 504.683 978.433 504.313 963.75 504.271 C 961.413 504.128 961.52 504.057 959.546 505.26 C 957.806 510.699 958.583 519.458 958.682 525.541 L 1016.15 525.331 L 1016.33 545.288 C 989.991 544.814 962.555 545.193 936.136 545.235 L 936.327 444.119 z"/>
<path transform="translate(0,0)" fill="rgb(14,58,118)" d="M 1283.06 444.2 C 1291.13 444.37 1299.49 444.236 1307.58 444.211 C 1317.03 466.765 1326.47 493.072 1334.88 516.07 L 1362.2 444.524 L 1386.27 444.547 C 1383.8 451.799 1379.9 460.804 1376.99 468.055 C 1366.58 493.673 1355.5 519.7 1345.56 545.428 L 1323.85 545.761 C 1312.99 514.57 1295.34 476.351 1283.06 444.2 z"/>
<path transform="translate(0,0)" fill="url(#Gradient1)" d="M 596.115 597.57 C 607.408 597.712 618.703 597.676 629.995 597.463 C 635.355 605.549 640.573 613.729 645.644 621.999 C 653.479 633.028 660.42 643.699 667.758 655.059 L 647.143 655.096 C 638.294 655.175 628.475 655.009 619.732 655.321 C 550.092 657.805 572.421 641.048 596.115 597.57 z"/>
<path transform="translate(0,0)" fill="rgb(35,155,206)" d="M 645.644 621.999 C 653.479 633.028 660.42 643.699 667.758 655.059 L 647.143 655.096 C 647.801 647.473 648.686 639.548 648.426 631.912 C 648.337 629.272 646.383 625.248 645.644 621.999 z"/>
<path transform="translate(0,0)" fill="rgb(120,168,84)" d="M 1395.22 582.455 C 1404.63 579.213 1414.9 584.129 1418.27 593.492 C 1421.65 602.855 1416.88 613.193 1407.57 616.701 C 1401.42 619.015 1394.51 617.841 1389.47 613.63 C 1384.44 609.418 1382.06 602.822 1383.25 596.366 C 1384.44 589.909 1389.01 584.594 1395.22 582.455 z"/>
<path transform="translate(0,0)" fill="rgb(255,255,255)" d="M 1397.07 588.76 C 1401.09 587.304 1405.58 588.146 1408.79 590.958 C 1412 593.77 1413.43 598.107 1412.52 602.278 C 1411.6 606.449 1408.5 609.794 1404.4 611.008 C 1398.33 612.809 1391.92 609.457 1389.94 603.44 C 1387.96 597.423 1391.12 590.921 1397.07 588.76 z"/>
<path transform="translate(0,0)" fill="rgb(120,168,84)" d="M 1211.48 582.496 C 1220.89 579.152 1231.23 584.052 1234.61 593.453 C 1237.98 602.855 1233.12 613.215 1223.72 616.62 C 1214.29 620.041 1203.87 615.147 1200.48 605.702 C 1197.09 596.258 1202.02 585.856 1211.48 582.496 z"/>
<path transform="translate(0,0)" fill="rgb(255,255,255)" d="M 1212.92 588.843 C 1216.84 587.235 1221.32 587.867 1224.64 590.497 C 1227.95 593.127 1229.59 597.344 1228.92 601.524 C 1228.25 605.704 1225.37 609.194 1221.4 610.652 C 1215.41 612.846 1208.77 609.845 1206.46 603.903 C 1204.15 597.961 1207.03 591.264 1212.92 588.843 z"/>
<path transform="translate(0,0)" fill="rgb(120,168,84)" d="M 943.219 582.481 C 949.383 580.387 956.197 581.766 961.063 586.092 C 965.928 590.418 968.094 597.024 966.736 603.391 C 965.377 609.758 960.703 614.904 954.496 616.867 C 945.038 619.859 934.936 614.679 931.845 605.253 C 928.754 595.828 933.827 585.671 943.219 582.481 z"/>
<path transform="translate(0,0)" fill="rgb(255,255,255)" d="M 945.281 588.688 C 949.288 587.312 953.725 588.209 956.884 591.032 C 960.043 593.855 961.43 598.164 960.51 602.299 C 959.591 606.435 956.509 609.751 952.452 610.97 C 946.346 612.805 939.894 609.415 937.94 603.346 C 935.987 597.276 939.251 590.76 945.281 588.688 z"/>
<path transform="translate(0,0)" fill="rgb(120,168,84)" d="M 1022.39 582.055 C 1029.73 581.864 1050.58 579.764 1051.51 591.918 C 1051.94 597.413 1049.73 599.498 1046.24 602.93 C 1041.5 607.581 1050.32 610.289 1051.09 615.56 C 1048.47 617.661 1048.55 617.037 1044.64 617.417 C 1041.72 612.231 1039.19 605.454 1032.53 605.976 C 1028.61 608.75 1029.07 612.978 1025.59 617.604 L 1024.1 617.256 C 1021.37 612.922 1022.39 588.917 1022.39 582.055 z"/>
<path transform="translate(0,0)" fill="rgb(255,255,255)" d="M 1029.01 587.959 C 1034.07 587.84 1039.52 587.016 1043.32 590.32 C 1044.98 594.706 1044.55 593.273 1043.88 598.185 C 1039.18 599.847 1034.57 601.289 1030.21 598.672 C 1028.14 595.659 1028.85 591.773 1029.01 587.959 z"/>
<path transform="translate(0,0)" fill="rgb(120,168,84)" d="M 816.481 582.027 C 825.288 581.915 852.005 580.125 844.08 598.47 C 842.933 601.125 840.354 603.16 838.126 605.014 C 840.974 608.921 844.44 612.311 843.984 616.778 L 840.385 618.527 C 835.795 614.829 833.884 605.502 827.326 605.153 C 820.272 604.778 825.038 613.56 820.804 617.249 L 817.57 616.755 C 816.056 614.584 816.521 587.316 816.481 582.027 z"/>
<path transform="translate(0,0)" fill="rgb(255,255,255)" d="M 822.956 587.975 C 828.081 587.842 833.731 586.956 837.455 590.417 C 839.009 593.574 838.521 594.76 837.862 598.124 C 833.323 600.059 828.8 601.179 824.427 598.73 C 822.138 595.701 822.824 591.924 822.956 587.975 z"/>
<path transform="translate(0,0)" fill="rgb(120,168,84)" d="M 1455.04 604.723 C 1455.03 599.325 1454.02 584.902 1458.57 581.662 C 1463.71 585.977 1462.71 611.717 1461.16 618.276 C 1452.77 615.497 1443.77 601.304 1437.85 593.967 C 1437.75 600.398 1439.61 611.552 1436.06 616.377 C 1433.16 617.301 1434.34 617.396 1431.81 616.155 C 1430.35 609.08 1431.08 589.686 1431.21 581.461 C 1432.45 581.675 1434.02 581.946 1435.93 582.276 C 1442.24 586.815 1450.72 598.967 1455.04 604.723 z"/>
<path transform="translate(0,0)" fill="rgb(120,168,84)" d="M 857.951 582.067 C 864.626 581.948 876.497 581.801 882.809 582.536 C 884.584 584.546 884.28 583.454 884.227 585.745 C 879.453 588.596 869.676 585.841 864.62 590.58 C 863.679 593.577 863.582 592.472 864.386 595.225 C 869.246 597.699 876.746 594.738 881.547 597.079 C 881.998 600.09 882.284 598.953 880.643 601.221 C 876.751 602.926 869.793 602.24 865.288 602.121 C 863.87 604.639 863.945 605.098 863.541 608.035 C 867.92 613.852 876.575 609.316 884.155 611.819 L 884.897 613.362 L 883.865 615.093 C 879.093 618.413 864.8 617.105 857.902 617.043 L 857.951 582.067 z"/>
<path transform="translate(0,0)" fill="rgb(120,168,84)" d="M 1105.06 581.954 C 1111.67 581.874 1126.93 580.724 1131.69 583.85 L 1131.92 585.635 C 1126.85 591.121 1117.15 584.52 1111.46 589.333 C 1111.42 592.713 1110.81 593.501 1112.52 595.808 C 1118.67 595.927 1124.02 596.455 1129.65 598.972 L 1128.16 601.266 C 1123.63 602.382 1117.11 602.111 1112.29 602.122 C 1110.43 604.548 1110.09 607.464 1111.62 610.039 C 1117.75 612.859 1127.51 608.683 1131.62 613.763 L 1130.95 616.223 C 1127 617.552 1110.25 617.103 1105.06 617.099 L 1105.06 581.954 z"/>
<path transform="translate(0,0)" fill="rgb(120,168,84)" d="M 1282.05 581.345 L 1286.65 582.015 C 1293.66 589.397 1281.55 612.832 1298.72 611.523 C 1311.98 610.513 1302.25 589.731 1307.48 582.173 C 1310.79 582.095 1310.3 581.595 1312.62 583.068 L 1312.92 586.75 C 1312.96 594.825 1314.46 607.31 1308.13 613.41 C 1302.68 618.986 1291.92 619.139 1286.57 613.367 C 1280.25 606.547 1281.99 590.403 1282.05 581.345 z"/>
<path transform="translate(0,0)" fill="rgb(120,168,84)" d="M 1486.14 581.15 C 1491.39 581.9 1496.24 582.04 1499.6 586.085 L 1498.86 588.492 C 1492.61 592.223 1489.76 583.772 1482.21 589.929 L 1482.13 591.466 C 1486.59 596.683 1500.99 598.288 1501.36 606.835 C 1501.73 615.054 1494.56 617.026 1487.87 617.75 C 1483.86 617.276 1477.71 616.142 1474.82 613.233 C 1474.21 610.316 1474.21 611.45 1476.13 608.183 C 1481.27 607.603 1487.68 615.784 1495.02 609.112 C 1492.27 603.59 1478.81 601.282 1474.2 592.276 C 1473.93 585.336 1480 582.57 1486.14 581.15 z"/>
<path transform="translate(0,0)" fill="rgb(120,168,84)" d="M 978.552 581.538 C 982.099 581.892 981.911 581.3 984.348 583.376 C 987.252 592.094 982.531 604.861 988.687 610.364 C 1008.67 619.745 999.549 587.227 1003.51 582.082 C 1006.92 581.76 1005.58 581.488 1008.59 583.101 L 1008.99 585.75 C 1009.12 593.558 1010.32 608.555 1004.86 613.22 C 991.61 624.56 975.777 612.939 978.492 596.556 C 978.912 594.018 978.533 584.239 978.552 581.538 z"/>
<path transform="translate(0,0)" fill="rgb(120,168,84)" d="M 901.707 582.057 C 906.796 581.505 917.449 580.937 919.732 586.565 L 918.636 588.794 C 910.942 590.955 905.298 583.021 901.392 590.751 C 903.765 595.112 919.984 599.198 922.124 606.132 C 924.029 612.304 915.93 616.287 911.136 617.734 C 906.184 617.735 892.278 616.656 894.957 609.048 C 900.876 605.825 902.113 613.126 910.88 611.551 C 913.634 609.674 913.617 610.349 914.412 607.851 C 911.101 600.819 880.879 597.462 901.707 582.057 z"/>
<path transform="translate(0,0)" fill="rgb(120,168,84)" d="M 1174.07 581.259 C 1178.13 581.375 1182.05 581.912 1185.63 583.84 C 1187.55 586.601 1187.29 585.369 1186.79 588.428 C 1182.41 590.458 1177.97 586.175 1172 588.031 C 1169.77 590.443 1170.22 589.277 1170.15 592.361 C 1174.32 597.866 1187.18 597.177 1190.07 605.6 C 1190.17 614.628 1181.98 617.317 1174.58 617.724 C 1173.02 617.392 1171.48 617.01 1169.95 616.58 C 1166.05 615.494 1164.12 614.608 1162.22 611.294 C 1165.16 605.275 1173.57 614.53 1181.99 609.826 C 1182.36 602.776 1166.65 601.861 1162.34 591.877 C 1162.34 585.304 1168.38 582.895 1174.07 581.259 z"/>
<path transform="translate(0,0)" fill="rgb(120,168,84)" d="M 1073.86 582.114 C 1079.19 581.267 1090.68 581.323 1092.54 587.392 L 1091.09 589.75 C 1085.31 591.596 1073.85 584.165 1069.94 591.884 C 1064.89 601.85 1071.36 615.09 1084.22 610.698 C 1087.72 608.375 1087.99 608.017 1091.75 609.449 L 1092.26 611.628 C 1089.22 617.741 1080.67 618.528 1074.74 616.974 C 1070.24 615.799 1066.4 612.858 1064.1 608.816 C 1057.71 597.434 1063.27 587.713 1073.86 582.114 z"/>
<path transform="translate(0,0)" fill="rgb(120,168,84)" d="M 1322.21 582.182 C 1329.37 581.931 1348.47 579.656 1352.28 585.264 L 1351.71 586.989 C 1348.64 588.554 1344.26 588.069 1340.65 588.007 L 1340.59 604.324 C 1340.61 608.186 1341.11 613.847 1339.33 617.013 C 1336.23 617.452 1337.35 617.695 1334.62 616.549 C 1333.17 610.905 1333.87 594.336 1333.95 587.925 C 1331.09 587.92 1328.22 587.933 1325.36 587.963 C 1322.33 585.93 1323.25 586.656 1322.21 582.182 z"/>
<path transform="translate(0,0)" fill="rgb(120,168,84)" d="M 1247.8 581.629 C 1249.76 581.742 1250.85 582.013 1252.78 582.426 C 1255.93 586.889 1254.33 604.624 1254.18 610.996 C 1259.21 611.077 1267.64 609.497 1271.94 611.899 C 1273.13 612.564 1273.32 615.078 1273.72 616.79 C 1266.62 617.318 1255.39 617.001 1247.98 617.017 L 1247.8 581.629 z"/>
<path transform="translate(0,0)" fill="rgb(120,168,84)" d="M 1363.57 581.626 C 1366.27 581.778 1367.16 581.969 1369.79 582.633 C 1371.4 587.078 1370.37 611.052 1370.22 617.463 C 1368.25 617.272 1366.5 616.922 1364.55 616.567 C 1362.39 613.262 1363.46 587.229 1363.57 581.626 z"/>
</svg>