<svg version="1.1" xmlns="http://www.w3.org/2000/svg" style="display: block;" viewBox="523 413 269 290" preserveAspectRatio="xMidYMid meet">
<defs>
	<linearGradient id="Gradient1" gradientUnits="userSpaceOnUse" x1="574.268" y1="625.372" x2="649.096" y2="626.745">
		<stop class="stop0" offset="0" stop-opacity="1" stop-color="rgb(20,58,126)"/>
		<stop class="stop1" offset="1" stop-opacity="1" stop-color="rgb(36,156,214)"/>
	</linearGradient>
	<linearGradient id="Gradient2" gradientUnits="userSpaceOnUse" x1="627.201" y1="437.102" x2="544.412" y2="438.746">
		<stop class="stop0" offset="0" stop-opacity="1" stop-color="rgb(27,111,174)"/>
		<stop class="stop1" offset="1" stop-opacity="1" stop-color="rgb(35,162,216)"/>
	</linearGradient>
	<linearGradient id="Gradient3" gradientUnits="userSpaceOnUse" x1="711.742" y1="452.125" x2="621.481" y2="447.193">
		<stop class="stop0" offset="0" stop-opacity="1" stop-color="rgb(23,57,116)"/>
		<stop class="stop1" offset="1" stop-opacity="1" stop-color="rgb(27,111,174)"/>
	</linearGradient>
	<linearGradient id="Gradient4" gradientUnits="userSpaceOnUse" x1="706.867" y1="525.231" x2="762.543" y2="479.943">
		<stop class="stop0" offset="0" stop-opacity="1" stop-color="rgb(24,101,161)"/>
		<stop class="stop1" offset="1" stop-opacity="1" stop-color="rgb(44,168,222)"/>
	</linearGradient>
	<linearGradient id="Gradient5" gradientUnits="userSpaceOnUse" x1="660.325" y1="629.092" x2="786.31" y2="492.714">
		<stop class="stop0" offset="0" stop-opacity="1" stop-color="rgb(96,152,67)"/>
		<stop class="stop1" offset="1" stop-opacity="1" stop-color="rgb(126,182,79)"/>
	</linearGradient>
</defs>
<path transform="translate(0,0)" fill="url(#Gradient5)" d="M 658.899 415.786 C 684.697 415.625 709.271 417.908 728.922 437.152 C 730.153 438.364 731.356 439.606 732.529 440.875 C 762.586 470.74 767.466 526.752 737.201 557.706 C 729.859 567.676 717.473 574.995 706.651 580.558 C 710.002 585.62 717.752 596.528 720.433 601.375 C 741.302 627.748 769.908 672.072 789.793 700.988 L 760.305 701.128 C 751.692 701.228 742.858 701.108 734.224 701.093 C 730.48 695.917 726.917 690.613 723.542 685.19 C 721.824 683.576 707.347 662.32 705.264 659.313 C 687.663 633.853 670.211 608.291 652.91 582.626 C 659.282 568.744 665.896 554.974 672.747 541.322 C 700.849 538.853 713.561 521.267 711.629 493.856 C 714.906 487.651 710.027 467.81 707.532 460.862 C 699.016 437.148 680.488 425.768 658.899 415.786 z"/>
<path transform="translate(0,0)" fill="url(#Gradient4)" d="M 732.529 440.875 C 762.586 470.74 767.466 526.752 737.201 557.706 C 729.859 567.676 717.473 574.995 706.651 580.558 C 700.736 569.318 701.237 561.776 701.999 549.722 C 703.576 546.364 704.02 545.597 706.236 542.63 C 711.119 533.079 719.599 523.613 725.531 514.606 C 737.453 496.504 743.638 473.394 735.778 452.433 C 734.474 448.958 733.425 445.495 732.709 441.826 L 732.529 440.875 z"/>
<path transform="translate(0,0)" fill="rgb(14,58,118)" d="M 706.236 542.63 C 710.022 540.447 711.127 538.184 713.529 534.529 C 716.662 537.728 717.846 538.882 721.397 541.58 C 726.774 545.666 736.703 547.091 738.734 553.34 L 737.201 557.706 C 729.859 567.676 717.473 574.995 706.651 580.558 C 700.736 569.318 701.237 561.776 701.999 549.722 C 703.576 546.364 704.02 545.597 706.236 542.63 z"/>
<path transform="translate(0,0)" fill="rgb(83,139,61)" d="M 701.999 549.722 C 701.237 561.776 700.736 569.318 706.651 580.558 C 710.002 585.62 717.752 596.528 720.433 601.375 L 719.684 601.956 C 712.375 598.235 705.665 576.973 700.648 575.157 C 696.159 577.504 693.601 586.295 694.101 591.138 C 694.519 595.192 698.967 600.757 698.099 604.501 L 695.767 603.315 C 688.552 592.195 694.72 561.205 701.999 549.722 z"/>
<path transform="translate(0,0)" fill="rgb(83,139,61)" d="M 723.542 685.19 L 725.173 684.866 L 724.114 684.768 C 729.298 687.143 733.458 704.671 748.671 698.984 C 750.186 698.418 750.622 698.156 751.766 697.074 C 754.415 687.39 740.6 679.408 737.859 669.738 C 740.962 672.335 757.306 696.641 760.305 701.128 C 751.692 701.228 742.858 701.108 734.224 701.093 C 730.48 695.917 726.917 690.613 723.542 685.19 z"/>
<path transform="translate(0,0)" fill="rgb(120,168,84)" d="M 542.336 508.873 C 563.139 504.521 596.312 494.267 617.749 488.36 C 622.786 508.084 629.054 527.499 634.664 547.066 C 636.169 552.315 638.073 557.542 638.848 562.962 L 637.855 563.865 L 634.9 561.669 L 615.197 551.204 C 602.41 577.005 572.939 619.651 564.292 642.861 C 561.089 637.479 558.006 632.026 555.046 626.507 C 533.838 595.942 525.263 585.087 549 551.649 C 554.269 544.226 562.245 529.648 566.665 521.478 C 558.696 517.66 550.219 513.005 542.336 508.873 z"/>
<path transform="translate(0,0)" fill="rgb(83,139,61)" d="M 555.046 626.507 C 549.105 595.849 566.856 577.622 581.216 552.291 C 584.373 546.721 600.585 520.257 604.133 517.727 C 618.641 528.657 627.378 520.177 630.645 543.333 C 630.877 544.977 635.353 555.109 636.258 560.359 L 634.9 561.669 L 615.197 551.204 C 602.41 577.005 572.939 619.651 564.292 642.861 C 561.089 637.479 558.006 632.026 555.046 626.507 z"/>
<path transform="translate(0,0)" fill="url(#Gradient3)" d="M 540.243 415.356 C 565.057 416.187 591.879 414.56 616.372 415.894 C 630.546 415.587 644.724 415.551 658.899 415.786 C 680.488 425.768 699.016 437.148 707.532 460.862 C 710.027 467.81 714.906 487.651 711.629 493.856 C 701.352 455.223 666.639 462.537 635.58 461.844 C 617.916 462.632 595.694 462.036 577.677 462.066 L 540.243 415.356 z"/>
<path transform="translate(0,0)" fill="url(#Gradient2)" d="M 540.243 415.356 C 565.057 416.187 591.879 414.56 616.372 415.894 C 621.548 417.221 622.276 416.435 625.187 420.965 C 630.39 429.06 628.646 441.301 626.82 450.361 C 622.827 454.048 622.311 454.594 619.895 459.44 L 613.45 460.224 C 617.955 460.412 632.058 460.7 635.58 461.844 C 617.916 462.632 595.694 462.036 577.677 462.066 L 540.243 415.356 z"/>
<path transform="translate(0,0)" fill="url(#Gradient1)" d="M 596.115 597.57 C 607.408 597.712 618.703 597.676 629.995 597.463 C 635.355 605.549 640.573 613.729 645.644 621.999 C 653.479 633.028 660.42 643.699 667.758 655.059 L 647.143 655.096 C 638.294 655.175 628.475 655.009 619.732 655.321 C 550.092 657.805 572.421 641.048 596.115 597.57 z"/>
<path transform="translate(0,0)" fill="rgb(35,155,206)" d="M 645.644 621.999 C 653.479 633.028 660.42 643.699 667.758 655.059 L 647.143 655.096 C 647.801 647.473 648.686 639.548 648.426 631.912 C 648.337 629.272 646.383 625.248 645.644 621.999 z"/>
</svg>
